<?xml version="1.0" encoding="UTF-8" standalone="no"?>
<!DOCTYPE svg PUBLIC "-//W3C//DTD SVG 1.1//EN"
 "http://www.w3.org/Graphics/SVG/1.1/DTD/svg11.dtd">
<!-- Generated by graphviz version 3.0.0 (20220226.1711)
 -->
<!-- Title: dependencies Pages: 1 -->
<svg width="353pt" height="174pt"
 viewBox="0.00 0.00 353.00 173.80" xmlns="http://www.w3.org/2000/svg" xmlns:xlink="http://www.w3.org/1999/xlink">
<g id="graph0" class="graph" transform="scale(1 1) rotate(0) translate(4 169.8)">
<title>dependencies</title>
<polygon fill="white" stroke="transparent" points="-4,4 -4,-169.8 349,-169.8 349,4 -4,4"/>
<text text-anchor="middle" x="172.5" y="-8.2" font-family="sans-serif" font-size="14.00">dependencies</text>
<g id="clust1" class="cluster">
<title>cluster_ParserModule</title>
<polygon fill="none" stroke="black" stroke-dasharray="1,5" points="8,-32.8 8,-157.8 337,-157.8 337,-32.8 8,-32.8"/>
</g>
<g id="clust6" class="cluster">
<title>cluster_ParserModule_providers</title>
<polygon fill="none" stroke="black" points="16,-40.8 16,-92.8 329,-92.8 329,-40.8 16,-40.8"/>
</g>
<!-- ParserCommand -->
<g id="node1" class="node">
<title>ParserCommand</title>
<ellipse fill="#fdb462" stroke="black" cx="246" cy="-66.8" rx="75.31" ry="18"/>
<text text-anchor="middle" x="246" y="-62.6" font-family="Times,serif" font-size="14.00">ParserCommand</text>
</g>
<!-- ParserModule -->
<g id="node3" class="node">
<title>ParserModule</title>
<polygon fill="#8dd3c7" stroke="black" points="214.04,-149.8 211.04,-153.8 190.04,-153.8 187.04,-149.8 119.96,-149.8 119.96,-113.8 214.04,-113.8 214.04,-149.8"/>
<text text-anchor="middle" x="167" y="-127.6" font-family="Times,serif" font-size="14.00">ParserModule</text>
</g>
<!-- ParserCommand&#45;&gt;ParserModule -->
<g id="edge1" class="edge">
<title>ParserCommand&#45;&gt;ParserModule</title>
<path fill="none" stroke="black" d="M192.43,-79.64C192.43,-79.64 192.43,-103.32 192.43,-103.32"/>
<polygon fill="black" stroke="black" points="188.93,-103.32 192.43,-113.32 195.93,-103.32 188.93,-103.32"/>
</g>
<!-- ParserService -->
<g id="node2" class="node">
<title>ParserService</title>
<ellipse fill="#fdb462" stroke="black" cx="88" cy="-66.8" rx="64.25" ry="18"/>
<text text-anchor="middle" x="88" y="-62.6" font-family="Times,serif" font-size="14.00">ParserService</text>
</g>
<!-- ParserService&#45;&gt;ParserModule -->
<g id="edge2" class="edge">
<title>ParserService&#45;&gt;ParserModule</title>
<path fill="none" stroke="black" d="M135.93,-79.03C135.93,-79.03 135.93,-103.48 135.93,-103.48"/>
<polygon fill="black" stroke="black" points="132.43,-103.48 135.93,-113.48 139.43,-103.48 132.43,-103.48"/>
</g>
</g>
</svg>
