<?xml version="1.0" encoding="UTF-8" standalone="no"?>
<!DOCTYPE svg PUBLIC "-//W3C//DTD SVG 1.1//EN"
 "http://www.w3.org/Graphics/SVG/1.1/DTD/svg11.dtd">
<!-- Generated by graphviz version 3.0.0 (20220226.1711)
 -->
<!-- Title: dependencies Pages: 1 -->
<svg width="150pt" height="174pt"
 viewBox="0.00 0.00 150.00 173.80" xmlns="http://www.w3.org/2000/svg" xmlns:xlink="http://www.w3.org/1999/xlink">
<g id="graph0" class="graph" transform="scale(1 1) rotate(0) translate(4 169.8)">
<title>dependencies</title>
<polygon fill="white" stroke="transparent" points="-4,4 -4,-169.8 146,-169.8 146,4 -4,4"/>
<text text-anchor="middle" x="71" y="-8.2" font-family="sans-serif" font-size="14.00">dependencies</text>
<g id="clust1" class="cluster">
<title>cluster_AppModule</title>
<polygon fill="none" stroke="black" stroke-dasharray="1,5" points="8,-32.8 8,-157.8 134,-157.8 134,-32.8 8,-32.8"/>
</g>
<g id="clust3" class="cluster">
<title>cluster_AppModule_imports</title>
<polygon fill="none" stroke="black" points="16,-40.8 16,-92.8 126,-92.8 126,-40.8 16,-40.8"/>
</g>
<!-- ParserModule -->
<g id="node1" class="node">
<title>ParserModule</title>
<polygon fill="#8dd3c7" stroke="black" points="118.04,-84.8 115.04,-88.8 94.04,-88.8 91.04,-84.8 23.96,-84.8 23.96,-48.8 118.04,-48.8 118.04,-84.8"/>
<text text-anchor="middle" x="71" y="-62.6" font-family="Times,serif" font-size="14.00">ParserModule</text>
</g>
<!-- AppModule -->
<g id="node2" class="node">
<title>AppModule</title>
<polygon fill="#8dd3c7" stroke="black" points="112.66,-149.8 109.66,-153.8 88.66,-153.8 85.66,-149.8 29.34,-149.8 29.34,-113.8 112.66,-113.8 112.66,-149.8"/>
<text text-anchor="middle" x="71" y="-127.6" font-family="Times,serif" font-size="14.00">AppModule</text>
</g>
<!-- ParserModule&#45;&gt;AppModule -->
<g id="edge1" class="edge">
<title>ParserModule&#45;&gt;AppModule</title>
<path fill="none" stroke="black" d="M71,-84.91C71,-84.91 71,-103.79 71,-103.79"/>
<polygon fill="black" stroke="black" points="67.5,-103.79 71,-113.79 74.5,-103.79 67.5,-103.79"/>
</g>
</g>
</svg>
