<?xml version="1.0" encoding="UTF-8" standalone="no"?>
<!DOCTYPE svg PUBLIC "-//W3C//DTD SVG 1.1//EN"
 "http://www.w3.org/Graphics/SVG/1.1/DTD/svg11.dtd">
<!-- Generated by graphviz version 3.0.0 (20220226.1711)
 -->
<!-- Title: dependencies Pages: 1 -->
<svg width="353pt" height="250pt"
 viewBox="0.00 0.00 353.00 249.80" xmlns="http://www.w3.org/2000/svg" xmlns:xlink="http://www.w3.org/1999/xlink">
<g id="graph0" class="graph" transform="scale(1 1) rotate(0) translate(4 245.8)">
<title>dependencies</title>
<polygon fill="white" stroke="transparent" points="-4,4 -4,-245.8 349,-245.8 349,4 -4,4"/>
<text text-anchor="middle" x="172.5" y="-8.2" font-family="sans-serif" font-size="14.00">dependencies</text>
<g id="clust1" class="cluster">
<title>cluster_AppModule</title>
<polygon fill="none" stroke="black" stroke-dasharray="1,5" points="104,-108.8 104,-233.8 230,-233.8 230,-108.8 104,-108.8"/>
</g>
<g id="clust3" class="cluster">
<title>cluster_AppModule_imports</title>
<polygon fill="none" stroke="black" points="112,-116.8 112,-168.8 222,-168.8 222,-116.8 112,-116.8"/>
</g>
<g id="clust7" class="cluster">
<title>cluster_ParserModule</title>
<polygon fill="none" stroke="black" stroke-dasharray="1,5" points="8,-32.8 8,-100.8 337,-100.8 337,-32.8 8,-32.8"/>
</g>
<g id="clust12" class="cluster">
<title>cluster_ParserModule_providers</title>
<polygon fill="none" stroke="black" points="16,-40.8 16,-92.8 329,-92.8 329,-40.8 16,-40.8"/>
</g>
<!-- ParserModule -->
<g id="node1" class="node">
<title>ParserModule</title>
<polygon fill="#8dd3c7" stroke="black" points="214.04,-160.8 211.04,-164.8 190.04,-164.8 187.04,-160.8 119.96,-160.8 119.96,-124.8 214.04,-124.8 214.04,-160.8"/>
<text text-anchor="middle" x="167" y="-138.6" font-family="Times,serif" font-size="14.00">ParserModule</text>
</g>
<!-- AppModule -->
<g id="node2" class="node">
<title>AppModule</title>
<polygon fill="#8dd3c7" stroke="black" points="208.66,-225.8 205.66,-229.8 184.66,-229.8 181.66,-225.8 125.34,-225.8 125.34,-189.8 208.66,-189.8 208.66,-225.8"/>
<text text-anchor="middle" x="167" y="-203.6" font-family="Times,serif" font-size="14.00">AppModule</text>
</g>
<!-- ParserModule&#45;&gt;AppModule -->
<g id="edge1" class="edge">
<title>ParserModule&#45;&gt;AppModule</title>
<path fill="none" stroke="black" d="M167,-160.91C167,-160.91 167,-179.79 167,-179.79"/>
<polygon fill="black" stroke="black" points="163.5,-179.79 167,-189.79 170.5,-179.79 163.5,-179.79"/>
</g>
<!-- ParserCommand -->
<g id="node3" class="node">
<title>ParserCommand</title>
<ellipse fill="#fdb462" stroke="black" cx="246" cy="-66.8" rx="75.31" ry="18"/>
<text text-anchor="middle" x="246" y="-62.6" font-family="Times,serif" font-size="14.00">ParserCommand</text>
</g>
<!-- ParserCommand&#45;&gt;ParserModule -->
<g id="edge2" class="edge">
<title>ParserCommand&#45;&gt;ParserModule</title>
<path fill="none" stroke="black" d="M192.43,-79.69C192.43,-79.69 192.43,-114.71 192.43,-114.71"/>
<polygon fill="black" stroke="black" points="188.93,-114.71 192.43,-124.71 195.93,-114.71 188.93,-114.71"/>
</g>
<!-- ParserService -->
<g id="node4" class="node">
<title>ParserService</title>
<ellipse fill="#fdb462" stroke="black" cx="88" cy="-66.8" rx="64.25" ry="18"/>
<text text-anchor="middle" x="88" y="-62.6" font-family="Times,serif" font-size="14.00">ParserService</text>
</g>
<!-- ParserService&#45;&gt;ParserModule -->
<g id="edge3" class="edge">
<title>ParserService&#45;&gt;ParserModule</title>
<path fill="none" stroke="black" d="M135.93,-79.01C135.93,-79.01 135.93,-114.66 135.93,-114.66"/>
<polygon fill="black" stroke="black" points="132.43,-114.66 135.93,-124.66 139.43,-114.66 132.43,-114.66"/>
</g>
</g>
</svg>
